<?xml version="1.0" encoding="UTF-8"?>
<svg id="Calque_1" data-name="Calque 1" xmlns="http://www.w3.org/2000/svg" viewBox="0 0 438.5 161.07">
  <defs>
    <style>
      .cls-1, .cls-2 {
        fill: #002962;
      }

      .cls-1, .cls-3 {
        stroke-width: 0px;
      }

      .cls-4, .cls-2 {
        stroke: #fff;
        stroke-miterlimit: 10;
        stroke-width: 2px;
      }

      .cls-4, .cls-3 {
        fill: #fff;
      }
    </style>
  </defs>
  <g>
    <path class="cls-2" d="m437.04,32.04h-23.61s-25.01,0-25.01,0h-169.17v15.47c8.82,0,17.12,3.44,23.33,9.28h125.02c23.71,0,47.01-7.18,66.1-21.24.14-.1.27-.2.41-.3l3.2-2.37c.36-.27.17-.83-.28-.83Z"/>
    <path class="cls-2" d="m372.89,56.79h-16.66s-17.64,0-17.64,0h-96.01c4.9,4.61,8.5,10.71,9.98,17.8.49,2.33.72,4.66.72,6.96h70.35c16.81,0,33.36-7.11,46.9-21.24.1-.1.19-.2.29-.3l2.26-2.37c.25-.27.12-.83-.19-.83Z"/>
    <path class="cls-2" d="m329.71,81.54h-11.97s-12.68,0-12.68,0h-51.77c0,9.52-4.02,18.42-10.73,24.75h51.74c12.09,0,23.99-7.11,33.72-21.24.07-.1.14-.2.21-.3l1.62-2.37c.18-.27.09-.83-.14-.83Z"/>
    <path class="cls-2" d="m300.15,106.29h-8.77s-9.29,0-9.29,0h-39.54c-4.42,4.17-9.97,7.23-16.35,8.56-2.33.49-4.66.72-6.96.72v15.47h54.97c8.85,0,17.57-7.11,24.7-21.24.05-.1.1-.2.15-.3l1.19-2.37c.13-.27.06-.83-.1-.83Z"/>
  </g>
  <g>
    <path class="cls-2" d="m195.92,106.29h-48.8s-8.77,0-8.77,0c-.17,0-.24.57-.1.83l1.19,2.37c.05.1.1.2.15.3,7.13,14.13,15.85,21.24,24.7,21.24h54.97v-15.47c-8.82,0-17.12-3.44-23.33-9.28Z"/>
    <path class="cls-2" d="m185.94,88.5c-.49-2.33-.72-4.66-.72-6.96h-64.45s-11.97,0-11.97,0c-.23,0-.32.57-.14.83l1.62,2.37c.07.1.14.2.21.3,9.73,14.13,21.64,21.24,33.72,21.24h51.72c-4.9-4.61-8.5-10.71-9.98-17.8Z"/>
    <path class="cls-2" d="m195.94,56.79h-113.68s-16.65,0-16.65,0c-.31,0-.45.57-.19.83l2.26,2.37c.1.1.19.2.29.3,13.54,14.13,30.09,21.24,46.9,21.24h70.35c0-9.52,4.02-18.42,10.73-24.75Z"/>
    <path class="cls-2" d="m212.29,48.23c2.33-.49,4.66-.72,6.96-.72v-15.47H25.07s-23.61,0-23.61,0c-.45,0-.63.57-.28.83l3.2,2.37c.14.1.27.2.41.3,19.1,14.06,42.39,21.24,66.1,21.24h125.04c4.42-4.17,9.97-7.23,16.35-8.56Z"/>
  </g>
  <g>
    <path class="cls-4" d="m312,9.03c-1.63-1.95-3.27-3.9-4.91-5.85-.54-.64-1.07-1.28-1.61-1.92-10.63,5.49-24.44,13.78-38.98,25.96-11.66,9.77-20.77,19.51-27.67,27.89,4.22,3.16,7.67,7.29,10.05,12.04,9.47-5.33,20.66-12.59,32.33-22.37,14.54-12.18,25.12-24.33,32.38-33.84-.54-.64-1.07-1.28-1.61-1.92Z"/>
    <path class="cls-4" d="m190.93,93.92c-9.47,5.33-20.66,12.59-32.33,22.37-14.54,12.18-25.12,24.33-32.38,33.84l1.61,1.92,4.91,5.85,1.61,1.92c10.63-5.49,24.44-13.78,38.98-25.96,11.67-9.78,20.78-19.52,27.68-27.91-4.22-3.16-7.68-7.28-10.06-12.03Z"/>
  </g>
  <g>
    <ellipse class="cls-3" cx="219.13" cy="81.65" rx="35.39" ry="35.62"/>
    <ellipse class="cls-2" cx="218.51" cy="81.23" rx="22.15" ry="22.42"/>
  </g>
  <polygon class="cls-1" points="298.18 30.39 300.47 28 286.88 10.9 284.29 12.62 298.18 30.39"/>
  <polygon class="cls-1" points="302.52 25.77 304.78 23.25 292.38 7.44 289.46 9.26 302.52 25.77"/>
  <polygon class="cls-1" points="136.35 136.36 134.12 138.87 147.47 153.6 150.42 151.77 136.35 136.36"/>
  <polygon class="cls-1" points="140.67 131.7 138.38 134.13 153.01 150.1 155.65 148.37 140.67 131.7"/>
  <circle class="cls-3" cx="218.51" cy="81.23" r="8.01"/>
  <g>
    <path class="cls-3" d="m124.53,143.91c-9.92-2.91-15.34-15.37-14.01-25.03.07-.47-.66-.68-.72-.2-1.39,10.07,4.18,22.91,14.53,25.95.46.14.66-.59.2-.72h0Z"/>
    <path class="cls-3" d="m128.63,136c-5.74-1.07-9.45-7.73-9.25-13.23.02-.48-.73-.48-.75,0-.21,5.81,3.74,12.82,9.8,13.95.47.09.67-.63.2-.72h0Z"/>
    <path class="cls-3" d="m136.55,130.68c-7.76-2.28-12-12.03-10.96-19.59.07-.47-.66-.68-.72-.2-1.1,7.96,3.3,18.1,11.49,20.51.46.14.66-.59.2-.72h0Z"/>
    <path class="cls-3" d="m313.04,18.04c10.03,2.78,15.57,15.19,14.38,24.91-.06.48.69.47.75,0,1.23-10.05-4.6-22.77-14.93-25.63-.47-.13-.66.59-.2.72h0Z"/>
    <path class="cls-3" d="m309.06,26.01c5.76.98,9.57,7.58,9.46,13.08-.01.48.74.48.75,0,.12-5.81-3.93-12.77-10.01-13.81-.47-.08-.67.64-.2.72h0Z"/>
    <path class="cls-3" d="m301.22,31.45c7.85,2.18,12.18,11.91,11.25,19.51-.06.48.69.47.75,0,.97-7.94-3.64-17.98-11.8-20.24-.47-.13-.66.59-.2.72h0Z"/>
  </g>
</svg>