<svg width="1728" height="300" viewBox="0 0 1728 795" fill="none" xmlns="http://www.w3.org/2000/svg">
<path d="M363 110.528C247 -45.4717 77.8333 -6.13844 -1 46.5282V671.528C323.333 720.028 926.615 761.048 1006 666.528C1134.5 513.528 967 443.695 930.5 407.528C911.3 355.128 833.833 342.028 797.5 342.028C782.7 275.628 716.333 272.362 685 279.028C672.2 192.628 601.667 179.695 568 184.028C553.2 120.428 497.667 129.695 475.5 134.528C444.3 90.9283 391.167 92.3616 363 110.528Z" fill="white" fill-opacity="0.5"/>
<path d="M1363.75 110.557C1479.75 -45.4434 1648.92 -6.11015 1727.75 46.5565V671.556C1403.42 720.056 800.139 761.077 720.755 666.556C592.255 513.557 759.755 443.723 796.255 407.557C815.455 355.157 892.921 342.057 929.255 342.057C944.055 275.657 1010.42 272.39 1041.75 279.057C1054.55 192.657 1125.09 179.723 1158.75 184.057C1173.55 120.457 1229.09 129.723 1251.25 134.557C1282.45 90.9566 1335.59 92.3899 1363.75 110.557Z" fill="white" fill-opacity="0.5"/>
<path d="M154 181.557C38 25.5566 -131.167 64.8899 -210 117.557V742.556C114.333 791.056 717.615 832.077 797 737.556C925.5 584.557 758 514.723 721.5 478.557C702.3 426.157 624.833 413.057 588.5 413.057C573.7 346.657 507.333 343.39 476 350.057C463.2 263.657 392.667 250.723 359 255.057C344.2 191.457 288.667 200.723 266.5 205.557C235.3 161.957 182.167 163.39 154 181.557Z" fill="white" fill-opacity="0.7"/>
<path d="M1639.75 181.557C1755.75 25.5566 1924.92 64.8899 2003.75 117.557V742.556C1679.42 791.056 1076.14 832.077 996.755 737.556C868.255 584.557 1035.75 514.723 1072.25 478.557C1091.45 426.157 1168.92 413.057 1205.25 413.057C1220.05 346.657 1286.42 343.39 1317.75 350.057C1330.55 263.657 1401.09 250.723 1434.75 255.057C1449.55 191.457 1505.09 200.723 1527.25 205.557C1558.45 161.957 1611.59 163.39 1639.75 181.557Z" fill="white" fill-opacity="0.7"/>
<path d="M325 304.918C207.4 210.518 57.3333 242.585 -3 270.418V550.918H1864V129.418C1688.8 114.218 1633.33 227.418 1627.5 285.918C1475.1 218.718 1359.33 313.918 1320.5 369.918C1170.9 257.118 1025.5 304.918 971.5 342.918C837.1 274.118 713.5 346.252 668.5 390.918C602.9 302.518 412.167 296.752 325 304.918Z" fill="white"/>
</svg>
