<svg width="2214" height="795" viewBox="0 0 2214 795" fill="none" xmlns="http://www.w3.org/2000/svg">
<mask id="mask0_349_508" style="mask-type:alpha" maskUnits="userSpaceOnUse" x="0" y="0" width="2214" height="795">
<path d="M573 110.528C457 -45.4717 287.833 -6.13844 209 46.5282V671.528C533.333 720.028 1136.62 761.048 1216 666.528C1344.5 513.528 1177 443.695 1140.5 407.528C1121.3 355.128 1043.83 342.028 1007.5 342.028C992.7 275.628 926.333 272.362 895 279.028C882.2 192.628 811.667 179.695 778 184.028C763.2 120.428 707.667 129.695 685.5 134.528C654.3 90.9283 601.167 92.3616 573 110.528Z" fill="white" fill-opacity="0.5"/>
<path d="M1709.75 110.528C1825.75 -45.4717 1994.92 -6.13844 2073.75 46.5282V671.528C1749.42 720.028 1146.14 761.048 1066.75 666.528C938.255 513.528 1105.75 443.695 1142.25 407.528C1161.45 355.128 1238.92 342.028 1275.25 342.028C1290.05 275.628 1356.42 272.362 1387.75 279.028C1400.55 192.628 1471.09 179.695 1504.75 184.028C1519.55 120.428 1575.09 129.695 1597.25 134.528C1628.45 90.9283 1681.59 92.3616 1709.75 110.528Z" fill="white" fill-opacity="0.5"/>
<path d="M364 181.557C248 25.5566 78.8333 64.8899 0 117.557V742.557C324.333 791.057 927.615 832.077 1007 737.557C1135.5 584.557 968 514.723 931.5 478.557C912.3 426.157 834.833 413.057 798.5 413.057C783.7 346.657 717.333 343.39 686 350.057C673.2 263.657 602.667 250.723 569 255.057C554.2 191.457 498.667 200.723 476.5 205.557C445.3 161.957 392.167 163.39 364 181.557Z" fill="white" fill-opacity="0.7"/>
<path d="M1849.75 181.557C1965.75 25.5566 2134.92 64.8899 2213.75 117.557V742.557C1889.42 791.057 1286.14 832.077 1206.75 737.557C1078.25 584.557 1245.75 514.723 1282.25 478.557C1301.45 426.157 1378.92 413.057 1415.25 413.057C1430.05 346.657 1496.42 343.39 1527.75 350.057C1540.55 263.657 1611.09 250.723 1644.75 255.057C1659.55 191.457 1715.09 200.723 1737.25 205.557C1768.45 161.957 1821.59 163.39 1849.75 181.557Z" fill="white" fill-opacity="0.7"/>
<path d="M535 304.918C417.4 210.518 267.333 242.585 207 270.418V550.918H2074V129.418C1898.8 114.218 1843.33 227.418 1837.5 285.918C1685.1 218.718 1569.33 313.918 1530.5 369.918C1380.9 257.118 1235.5 304.918 1181.5 342.918C1047.1 274.118 923.5 346.252 878.5 390.918C812.9 302.518 622.167 296.752 535 304.918Z" fill="white"/>
</mask>
<g mask="url(#mask0_349_508)">
<rect x="209" width="1865" height="551" fill="#D9D9D9"/>
</g>
</svg>
