<svg width="1867" height="549" viewBox="0 0 1867 549" fill="none" xmlns="http://www.w3.org/2000/svg">
<path d="M1437.92 220.276C1553.94 136.614 1723.15 157.708 1802 185.953V521.138C1477.59 547.148 874.169 569.147 794.766 518.456C666.236 436.403 833.775 398.952 870.283 379.556C889.488 351.454 966.973 344.428 1003.31 344.428C1018.12 308.818 1084.5 307.066 1115.84 310.642C1128.64 264.306 1199.19 257.37 1232.87 259.694C1247.67 225.585 1303.22 230.555 1325.39 233.147C1356.6 209.764 1409.74 210.533 1437.92 220.276Z" fill="white" fill-opacity="0.5"/>
<path d="M1497.74 75.0114C1615.42 -30.86 1787.03 -4.16593 1867 31.577V455.741C1537.98 488.656 925.977 516.495 845.445 452.348C715.088 348.512 885.009 301.119 922.036 276.574C941.514 241.012 1020.1 232.122 1056.96 232.122C1071.97 187.059 1139.3 184.842 1171.08 189.366C1184.07 130.73 1255.62 121.952 1289.78 124.893C1304.79 81.7301 1361.13 88.0191 1383.61 91.2993C1415.26 61.7096 1469.17 62.6824 1497.74 75.0114Z" fill="white" fill-opacity="0.7"/>
<path d="M364.085 220.276C248.058 136.614 78.8517 157.708 0 185.953V521.138C324.409 547.148 927.831 569.147 1007.23 518.456C1135.76 436.403 968.225 398.952 931.717 379.556C912.512 351.454 835.027 344.428 798.686 344.428C783.882 308.818 717.5 307.066 686.16 310.642C673.357 264.306 602.807 257.37 569.132 259.694C554.329 225.585 498.783 230.555 476.611 233.147C445.404 209.764 392.258 210.533 364.085 220.276Z" fill="white" fill-opacity="0.5"/>
<path d="M364.085 75.0114C248.058 -30.86 78.8517 -4.16593 0 31.577V455.741C324.409 488.656 927.831 516.495 1007.23 452.348C1135.76 348.512 968.225 301.119 931.717 276.574C912.512 241.012 835.027 232.122 798.686 232.122C783.882 187.059 717.5 184.842 686.16 189.366C673.357 130.73 602.807 121.952 569.132 124.893C554.329 81.7301 498.783 88.0191 476.611 91.2993C445.404 61.7096 392.258 62.6824 364.085 75.0114Z" fill="white" fill-opacity="0.7"/>
<path d="M328 302.89C210.4 208.49 60.3333 240.557 0 268.39V548.89H1867V127.39C1691.8 112.19 1636.33 225.39 1630.5 283.89C1478.1 216.69 1362.33 311.89 1323.5 367.89C1173.9 255.09 1028.5 302.89 974.5 340.89C840.1 272.09 716.5 344.223 671.5 388.89C605.9 300.49 415.167 294.723 328 302.89Z" fill="white"/>
</svg>
