<svg width="1731" height="551" viewBox="0 0 1731 551" fill="none" xmlns="http://www.w3.org/2000/svg">
<path fill-rule="evenodd" clip-rule="evenodd" d="M1731 149.335C1660.81 182.455 1634.42 246.564 1630.5 285.918C1478.1 218.719 1362.33 313.918 1323.5 369.918C1173.9 257.118 1028.5 304.918 974.5 342.918C840.1 274.118 716.5 346.252 671.5 390.918C605.9 302.519 415.167 296.752 328 304.919C210.4 210.519 60.3333 242.585 0 270.419V550.918H1731V149.335Z" fill="white"/>
<path fill-rule="evenodd" clip-rule="evenodd" d="M2 46.5282C80.8333 -6.13844 250 -45.4717 366 110.528C394.167 92.3616 447.3 90.9283 478.5 134.528C500.667 129.695 556.2 120.428 571 184.028C604.667 179.695 675.2 192.628 688 279.028C719.333 272.362 785.7 275.628 800.5 342.028C836.833 342.028 914.3 355.128 933.5 407.528C939.665 413.637 949.569 420.707 961.152 428.976C997.793 455.134 1051.24 493.291 1056.36 551H2V46.5282Z" fill="white" fill-opacity="0.5"/>
<path fill-rule="evenodd" clip-rule="evenodd" d="M0 551H813.241C794.353 530.131 771.023 513.476 752.152 500.004C740.569 491.735 730.665 484.666 724.5 478.557C705.3 426.157 627.833 413.057 591.5 413.057C576.7 346.657 510.333 343.39 479 350.057C466.2 263.657 395.667 250.723 362 255.056C347.2 191.456 291.667 200.723 269.5 205.557C238.3 161.956 185.167 163.39 157 181.556C110.182 118.595 54.7043 87.4517 0 76.1616V551Z" fill="white" fill-opacity="0.7"/>
<path fill-rule="evenodd" clip-rule="evenodd" d="M1366.75 110.557C1482.75 -45.4434 1651.92 -6.11012 1730.75 46.5566V551H676.399C681.529 493.307 734.968 455.158 771.603 429.004C783.186 420.736 793.089 413.666 799.255 407.557C818.455 355.157 895.921 342.057 932.255 342.057C947.055 275.657 1013.42 272.39 1044.75 279.057C1057.55 192.657 1128.09 179.723 1161.75 184.057C1176.55 120.457 1232.09 129.723 1254.25 134.557C1285.45 90.9566 1338.59 92.3899 1366.75 110.557Z" fill="white" fill-opacity="0.5"/>
<path fill-rule="evenodd" clip-rule="evenodd" d="M1642.75 181.556C1669.87 145.084 1699.9 119.289 1731 101.845V551H986.513C1005.4 530.131 1028.73 513.476 1047.6 500.004C1059.19 491.735 1069.09 484.666 1075.25 478.556C1094.45 426.156 1171.92 413.056 1208.25 413.056C1223.05 346.656 1289.42 343.39 1320.75 350.056C1333.55 263.656 1404.09 250.723 1437.75 255.056C1452.55 191.456 1508.09 200.723 1530.25 205.556C1561.45 161.956 1614.59 163.39 1642.75 181.556Z" fill="white" fill-opacity="0.7"/>
</svg>
