<?xml version="1.0" encoding="UTF-8"?>
<svg id="Calque_1" data-name="Calque 1" xmlns="http://www.w3.org/2000/svg" viewBox="0 0 2146.28 553.07">
  <defs>
    <style>
      .cls-1 {
        opacity: .5;
      }

      .cls-1, .cls-2, .cls-3 {
        fill: #fff;
        stroke-width: 0px;
      }

      .cls-3 {
        opacity: .7;
      }
    </style>
  </defs>
  <path class="cls-1" d="m208.16,51.96s184.26-145.55,363.87,60.39c0,0,65.03-34.06,109.94,26.32,0,0,82.06-24.77,89.81,49.55,0,0,100.65-26.32,114.58,92.9,0,0,114.58-24.77,130.06,96s-24.77,171.87-24.77,171.87H208.16V51.96Z"/>
  <path class="cls-3" d="m0,125.35S184.26-20.2,363.87,185.74c0,0,65.03-34.06,109.94,26.32,0,0,82.06-24.77,89.81,49.55,0,0,100.65-26.32,114.58,92.9,0,0,114.58-24.77,130.06,96s-24.77,101.42-24.77,101.42l-783.48.77V125.35Z"/>
  <path class="cls-1" d="m1938.12,49.92s-184.26-145.55-363.87,60.39c0,0-65.03-34.06-109.94,26.32,0,0-82.06-24.77-89.81,49.55,0,0-100.65-26.32-114.58,92.9,0,0-114.58-24.77-130.06,96-15.48,120.77,24.77,171.87,24.77,171.87h783.48V49.92Z"/>
  <path class="cls-3" d="m2146.28,123.31s-184.26-145.55-363.87,60.39c0,0-65.03-34.06-109.94,26.32,0,0-82.06-24.77-89.81,49.55,0,0-100.65-26.32-114.58,92.9,0,0-114.58-24.77-130.06,96-15.48,120.77,24.77,101.42,24.77,101.42l783.48.77V123.31Z"/>
  <path class="cls-2" d="m207.13,276.68s161.03-92.9,328.26,30.97c0,0,246.19-29.42,340.65,85.16,0,0,144-134.71,305.03-44.9,0,0,153.29-117.68,351.48,26.32,0,0,119.23-170.32,305.03-85.16,0,0,13.42-177.03,235.87-157.42v421.42H208.16l-1.03-276.39Z"/>
</svg>