<svg width="1867" height="852" viewBox="0 0 1867 852" fill="none" xmlns="http://www.w3.org/2000/svg">
<mask id="mask0_366_516" style="mask-type:alpha" maskUnits="userSpaceOnUse" x="0" y="0" width="1867" height="852">
<path d="M364 167.528C248 11.5283 78.8333 50.8616 0 103.528V728.528C324.333 777.028 927.615 818.048 1007 723.528C1135.5 570.528 968 500.695 931.5 464.528C912.3 412.128 834.833 399.028 798.5 399.028C783.7 332.628 717.333 329.362 686 336.028C673.2 249.628 602.667 236.695 569 241.028C554.2 177.428 498.667 186.695 476.5 191.528C445.3 147.928 392.167 149.362 364 167.528Z" fill="white" fill-opacity="0.5"/>
<path d="M1502.75 110.528C1618.75 -45.4717 1787.92 -6.13844 1866.75 46.5282V671.528C1542.42 720.028 939.14 761.048 859.755 666.528C731.255 513.528 898.755 443.695 935.255 407.528C954.455 355.128 1031.92 342.028 1068.25 342.028C1083.05 275.628 1149.42 272.362 1180.75 279.028C1193.55 192.628 1264.09 179.695 1297.75 184.028C1312.55 120.428 1368.09 129.695 1390.25 134.528C1421.45 90.9283 1474.59 92.3616 1502.75 110.528Z" fill="white" fill-opacity="0.5"/>
<path d="M364 238.528C248 82.5283 78.8333 121.862 0 174.528V799.528C324.333 848.028 927.615 889.048 1007 794.528C1135.5 641.528 968 571.695 931.5 535.528C912.3 483.128 834.833 470.028 798.5 470.028C783.7 403.628 717.333 400.362 686 407.028C673.2 320.628 602.667 307.695 569 312.028C554.2 248.428 498.667 257.695 476.5 262.528C445.3 218.928 392.167 220.362 364 238.528Z" fill="white" fill-opacity="0.7"/>
<path d="M1464.75 220.528C1580.75 64.5283 1749.92 103.862 1828.75 156.528V781.528C1504.42 830.028 901.14 871.048 821.755 776.528C693.255 623.528 860.755 553.695 897.255 517.528C916.455 465.128 993.922 452.028 1030.25 452.028C1045.05 385.628 1111.42 382.362 1142.75 389.028C1155.55 302.628 1226.09 289.695 1259.75 294.028C1274.55 230.428 1330.09 239.695 1352.25 244.528C1383.45 200.928 1436.59 202.362 1464.75 220.528Z" fill="white" fill-opacity="0.7"/>
<path d="M328 304.918C210.4 210.518 60.3333 242.585 0 270.418V550.918H1867V129.418C1691.8 114.218 1636.33 227.418 1630.5 285.918C1478.1 218.718 1362.33 313.918 1323.5 369.918C1173.9 257.118 1028.5 304.918 974.5 342.918C840.1 274.118 716.5 346.252 671.5 390.918C605.9 302.518 415.167 296.752 328 304.918Z" fill="white"/>
</mask>
<g mask="url(#mask0_366_516)">
<rect width="1867" height="551" fill="white"/>
</g>
</svg>
